P2
40 25
255
255 255 255 255 255 255 255 255 255 255 255 255 255 255 255 254 216 203 227 253 255 255 255 255 255 255 255 255 255 255 255 255 255 255 255 255 255 255 255 255 
255 255 255 255 255 255 255 255 255 255 255 255 255 255 255 254 132 21 43 107 207 255 255 255 255 255 255 255 251 247 247 252 255 255 255 255 255 255 255 255 
255 255 255 255 255 255 255 255 255 255 255 255 255 255 255 255 205 25 0 0 31 164 254 255 243 204 154 109 81 68 69 87 118 191 254 252 255 255 255 255 
255 255 255 255 255 255 255 255 255 255 255 255 255 255 255 255 242 65 0 0 0 33 175 149 67 19 0 0 0 0 0 0 33 176 170 89 165 233 255 255 
255 255 255 255 255 255 255 255 255 255 255 255 255 255 255 255 251 86 0 8 41 52 28 1 0 0 0 0 0 1 32 113 213 182 28 0 1 116 254 255 
255 255 255 255 255 255 255 255 255 255 255 255 255 255 255 255 251 86 20 52 29 2 0 0 0 4 13 0 14 130 216 242 163 30 0 0 26 193 255 255 
255 255 255 255 255 255 255 255 255 255 255 255 255 255 255 255 248 103 38 8 0 0 1 2 0 100 171 41 25 202 182 83 9 0 0 12 156 255 255 255 
255 255 255 255 255 255 255 255 255 255 255 255 255 255 255 254 176 38 0 0 0 5 113 120 13 158 252 81 3 36 10 0 0 0 9 137 251 255 255 255 
255 255 255 255 255 255 255 255 255 255 255 255 255 255 248 144 19 0 10 54 17 20 214 225 37 45 109 22 0 0 0 0 0 15 141 249 255 255 255 255 
255 255 255 255 255 255 255 255 255 255 255 255 255 242 121 8 0 0 85 230 113 3 102 125 12 0 0 0 0 0 0 0 37 167 252 255 255 255 255 255 
255 255 255 255 255 255 255 255 255 255 255 255 255 132 2 0 0 0 77 232 119 0 0 0 0 0 0 0 0 0 11 90 208 255 255 255 255 255 255 255 
255 255 255 255 255 255 255 255 255 254 251 246 221 139 26 0 0 0 6 44 17 5 15 28 42 25 0 0 11 71 172 244 255 255 255 255 255 255 255 255 
255 255 255 255 254 252 248 242 233 223 213 206 159 136 108 1 0 0 2 37 39 48 42 25 40 25 25 89 175 238 255 255 255 255 255 255 255 255 255 255 
254 251 248 243 237 231 224 219 213 209 205 202 174 118 135 11 0 0 0 28 14 2 0 1 107 151 206 247 255 255 255 255 255 255 255 255 255 255 255 255 
254 244 236 234 231 227 223 220 215 211 207 203 194 147 145 10 0 3 13 45 23 0 0 49 227 255 255 255 255 255 255 255 255 255 255 255 255 255 255 255 
255 252 240 235 232 229 225 221 217 213 208 204 202 224 206 107 123 154 188 188 37 0 17 170 255 255 255 255 255 255 255 255 255 255 255 255 255 255 255 255 
255 255 248 236 233 230 226 222 218 214 209 207 230 254 253 250 254 255 255 206 24 26 158 252 255 255 255 255 255 255 255 255 255 255 255 255 255 255 255 255 
255 255 254 240 234 231 228 224 220 215 213 234 254 255 255 255 255 255 255 187 87 192 253 255 255 255 255 255 255 255 255 255 255 255 255 255 255 255 255 255 
255 255 255 245 235 232 229 225 221 219 238 255 255 255 255 255 255 255 255 232 236 255 255 255 255 255 255 255 255 255 255 255 255 255 255 255 255 255 255 255 
255 255 255 248 236 233 230 226 225 241 255 255 255 255 255 255 255 255 255 255 255 255 255 255 255 255 255 255 255 255 255 255 255 255 255 255 255 255 255 255 
255 255 255 250 237 234 231 230 244 255 255 255 255 255 255 255 255 255 255 255 255 255 255 255 255 255 255 255 255 255 255 255 255 255 255 255 255 255 255 255 
255 255 255 251 238 235 235 246 255 255 255 255 255 255 255 255 255 255 255 255 255 255 255 255 255 255 255 255 255 255 255 255 255 255 255 255 255 255 255 255 
255 255 255 252 239 238 248 255 255 255 255 255 255 255 255 255 255 255 255 255 255 255 255 255 255 255 255 255 255 255 255 255 255 255 255 255 255 255 255 255 
255 255 255 253 243 250 255 255 255 255 255 255 255 255 255 255 255 255 255 255 255 255 255 255 255 255 255 255 255 255 255 255 255 255 255 255 255 255 255 255 
255 255 255 255 253 255 255 255 255 255 255 255 255 255 255 255 255 255 255 255 255 255 255 255 255 255 255 255 255 255 255 255 255 255 255 255 255 255 255 255 
